<svg xmlns="http://www.w3.org/2000/svg" width="33" height="51" viewBox="0 0 33 51">
  <g fill="none" fill-rule="evenodd" stroke="#8F9DB2" stroke-width="2" transform="translate(1 1)">
    <path d="M15.5,49 C6.95315909,49 0,42.0917 0,33.6 L0,4.9 C0,2.198 2.21227273,0 4.93181818,0 C7.65136364,0 9.86363636,2.198 9.86363636,4.9 L9.86363636,17.2732 C10.5047727,16.9701 11.2212955,16.8 11.9772727,16.8 C13.9507045,16.8 15.6564091,17.9571 16.4447955,19.6245 C17.1951364,19.1646 18.0779318,18.9 19.0227273,18.9 C20.9961591,18.9 22.7025682,20.0571 23.49025,21.7245 C24.2405909,21.2646 25.1233864,21 26.0681818,21 C28.7870227,21 31,23.198 31,25.9 L31,33.6 C31,42.0917 24.0468409,49 15.5,49 Z"/>
    <path stroke-linecap="round" d="M17 20L17 26M10 17L10 23M24 22L24 28"/>
  </g>
</svg>
