<svg xmlns="http://www.w3.org/2000/svg" width="37" height="48" viewBox="0 0 37 48">
  <g fill="none" fill-rule="evenodd" stroke-linecap="round" stroke-linejoin="round" stroke-width="2" transform="translate(1 1)">
    <path stroke="#8F9DB2" d="M35,44.5319149 L35,46 L0.985297297,46 L0.985297297,44.0425532 L1,44.0425532 L1,0 L22,0 L35,12.7234043 L35,44.5319149 Z M22,0 L22,13 L35,13"/>
    <path stroke="#DD7FED" d="M7,38 L13,32 L16,34 L22,27 L29,38 L7,38 Z M12,26 C10.8954305,26 10,25.1045695 10,24 C10,22.8954305 10.8954305,22 12,22 C13.1045695,22 14,22.8954305 14,24 C14,25.1045695 13.1045695,26 12,26 Z"/>
  </g>
</svg>
