<svg xmlns="http://www.w3.org/2000/svg" width="19" height="25" viewBox="0 0 19 25">
  <g fill="none" fill-rule="evenodd" stroke-linecap="round" stroke-linejoin="round" transform="translate(0 1)">
    <path fill="#D8DDEF" stroke="#D8DDEF" d="M18,22.2659574 L18,23 L0.506724324,23 L0.506724324,22.0212766 L0.514285714,22.0212766 L0.514285714,0 L11.3142857,0 L18,6.36170213 L18,22.2659574 Z M11.3142857,0 L11.3142857,6.5 L18,6.5"/>
    <path stroke="#B8BFDA" d="M3.6,19 L6.68571429,16 L8.22857143,17 L11.3142857,13.5 L14.9142857,19 L3.6,19 Z M6.17142857,13 C5.60336426,13 5.14285714,12.5522847 5.14285714,12 C5.14285714,11.4477153 5.60336426,11 6.17142857,11 C6.73949289,11 7.2,11.4477153 7.2,12 C7.2,12.5522847 6.73949289,13 6.17142857,13 Z"/>
  </g>
</svg>
