<svg xmlns="http://www.w3.org/2000/svg" width="17" height="12" viewBox="0 0 17 12">
  <path fill="#D8DDEF" fill-rule="evenodd" d="M9.93426688,10.8216922 C10.708616,10.921981 11.3978174,10.8997326 12.0021413,10.7548615 C13.116631,10.4764146 14.0317217,9.89983956 14.7474135,9.02505081 C15.4865322,8.13930902 15.8561366,7.13094449 15.8561366,6.00004279 C15.8561366,4.64622954 15.3486739,3.48751738 14.3338386,2.52373516 C13.3248601,1.56551503 12.1076524,1.08640496 10.6822157,1.08640496 C10.4592096,1.08640496 10.2304369,1.10043855 9.99589764,1.12816344 C10.8112439,1.68539951 11.450618,2.38160231 11.9141102,3.21728527 C12.3950825,4.08634079 12.6356587,5.01392662 12.6356587,6.00004279 C12.6356587,7.43737298 12.1486495,8.71323136 11.1749915,9.82727564 C10.7114993,9.87742004 10.2188136,9.84130923 9.69675416,9.71868649 C10.8934182,8.73830356 11.4917052,7.49864157 11.4917052,6.00004279 C11.4917052,4.54046422 10.9168451,3.3203979 9.76712496,2.33984383 C9.02800628,1.71594823 8.23014014,1.3148786 7.37370675,1.13654936 C6.7577595,1.00853567 6.11541193,1.01401219 5.44675416,1.15323564 C4.21485965,1.35381324 3.19110414,1.90813991 2.37584803,2.81621564 C1.55446489,3.73541555 1.14395353,4.79666274 1.14395353,6.00004279 C1.14395353,7.35377046 1.6483527,8.51265376 2.65742134,9.47635041 C3.67216651,10.4346561 4.89234757,10.9136806 6.31787441,10.9136806 C6.54070026,10.9136806 6.76658964,10.8997326 6.99536232,10.8718366 C6.18587284,10.3147716 5.54929189,9.615745 5.0859799,8.77441438 C4.60491753,7.91100652 4.36443139,6.98607338 4.36443139,6.00004279 C4.36443139,4.57392234 4.84252035,3.30653546 5.79869827,2.19779656 C6.34427472,2.11419403 6.86038734,2.12831319 7.34730644,2.23955503 C6.12126866,3.22567119 5.50829482,4.47911007 5.50829482,6.00004279 C5.50829482,6.92489036 5.7604944,7.77991229 6.26507378,8.56545085 C6.76361622,9.32874104 7.42939069,9.92208792 8.26248728,10.3454059 C8.67894547,10.5683175 9.23614527,10.7271366 9.93426688,10.8216922 Z M8.5,0.36769708 C9.1980315,0.122708311 9.92552684,0 10.6822157,0 C12.4244562,0 13.9115237,0.58787036 15.1434182,1.7632688 C16.3810793,2.93319072 17,4.34544871 17,6.00004279 C17,7.65463686 16.3810793,9.06680928 15.1434182,10.2367312 C13.9115237,11.4123864 12.4244562,12 10.6822157,12 C9.92552684,12 9.1980315,11.8774628 8.5,11.6323029 C7.79611177,11.8774628 7.06870654,12 6.31787441,12 C4.5756339,12 3.0885664,11.4123864 1.8566719,10.2367312 C0.618920667,9.06680928 0,7.65463686 0,6.00004279 C0,4.34544871 0.618920667,2.93319072 1.8566719,1.7632688 C3.0885664,0.58787036 4.5756339,0 6.31787441,0 C7.06870654,0 7.79611177,0.122708311 8.5,0.36769708 L8.5,0.36769708 Z"/>
</svg>
