<svg xmlns="http://www.w3.org/2000/svg" width="21" height="27" viewBox="0 0 21 27">
  <g fill="none" fill-rule="evenodd" stroke-linecap="round" stroke-linejoin="round" stroke-width="1.1" transform="translate(0 1)">
    <path fill="#D8DDEF" stroke="#D8DDEF" d="M19.8947368,24.2021277 L19.8947368,25 L0.560063726,25 L0.560063726,23.9361702 L0.568421053,23.9361702 L0.568421053,0 L12.5052632,0 L19.8947368,6.91489362 L19.8947368,24.2021277 Z M12.5052632,0 L12.5052632,7.06521739 L19.8947368,7.06521739"/>
    <path stroke="#B8BFDA" d="M3.97894737,20.6521739 L7.38947368,17.3913043 L9.09473684,18.4782609 L12.5052632,14.673913 L16.4842105,20.6521739 L3.97894737,20.6521739 Z M6.82105263,14.1304348 C6.19319207,14.1304348 5.68421053,13.6437878 5.68421053,13.0434783 C5.68421053,12.4431688 6.19319207,11.9565217 6.82105263,11.9565217 C7.44891319,11.9565217 7.95789474,12.4431688 7.95789474,13.0434783 C7.95789474,13.6437878 7.44891319,14.1304348 6.82105263,14.1304348 Z"/>
  </g>
</svg>
