<svg xmlns="http://www.w3.org/2000/svg" width="32" height="32" viewBox="0 0 32 32">
  <path fill="#373B39" fill-rule="evenodd" d="M364.833,6009.279 L355.5,6018.62 L351.167,6014.28 C350.785,6013.9 350.167,6013.9 349.785,6014.28 C349.404,6014.669 349.404,6015.279 349.785,6015.66 L354.69,6020.57 C354.723,6020.62 354.743,6020.669 354.785,6020.71 C354.982,6020.91 355.242,6021 355.5,6020.99 C355.758,6021 356.018,6020.91 356.214,6020.71 C356.257,6020.669 356.277,6020.62 356.31,6020.57 L366.214,6010.66 C366.596,6010.28 366.596,6009.66 366.214,6009.279 C365.833,6008.9 365.215,6008.9 364.833,6009.279 L364.833,6009.279 Z M358,6029 C350.268,6029 344,6022.73 344,6015 C344,6007.27 350.268,6001 358,6001 C365.732,6001 372,6007.27 372,6015 C372,6022.73 365.732,6029 358,6029 L358,6029 Z M358,5999 C349.163,5999 342,6006.16 342,6015 C342,6023.83 349.163,6031 358,6031 C366.836,6031 374,6023.83 374,6015 C374,6006.16 366.836,5999 358,5999 L358,5999 Z" transform="translate(-342 -5999)"/>
</svg>
